<svg width="22" height="25" viewBox="0 0 22 25" fill="none" xmlns="http://www.w3.org/2000/svg">
<path d="M0 21.3125V8.9375C0 8.50208 0.0976247 8.08958 0.292875 7.7C0.488125 7.31042 0.757167 6.98958 1.1 6.7375L9.35 0.55C9.83125 0.183333 10.3812 0 11 0C11.6187 0 12.1687 0.183333 12.65 0.55L20.9 6.7375C21.2437 6.98958 21.5132 7.31042 21.7085 7.7C21.9037 8.08958 22.0009 8.50208 22 8.9375V21.3125C22 22.0687 21.7305 22.7164 21.1915 23.2554C20.6525 23.7944 20.0053 24.0634 19.25 24.0625H15.125C14.7354 24.0625 14.4091 23.9305 14.146 23.6665C13.8829 23.4025 13.7509 23.0762 13.75 22.6875V15.8125C13.75 15.4229 13.618 15.0966 13.354 14.8335C13.09 14.5704 12.7637 14.4384 12.375 14.4375H9.625C9.23541 14.4375 8.90908 14.5695 8.646 14.8335C8.38291 15.0975 8.25091 15.4238 8.25 15.8125V22.6875C8.25 23.0771 8.118 23.4039 7.854 23.6679C7.59 23.9319 7.26366 24.0634 6.875 24.0625H2.75C1.99375 24.0625 1.34658 23.7935 0.8085 23.2554C0.270416 22.7173 0.000916666 22.0697 0 21.3125Z" fill="currentColor"/>
</svg>
