<svg width="20" height="25" viewBox="0 0 20 25" fill="none" xmlns="http://www.w3.org/2000/svg">
<path fill-rule="evenodd" clip-rule="evenodd" d="M9.72222 23.7497L10.5826 24.6321C10.4697 24.7487 10.3355 24.8412 10.1878 24.9044C10.04 24.9675 9.88161 25 9.72161 25C9.56162 25 9.4032 24.9675 9.25544 24.9044C9.10768 24.8412 8.9735 24.7487 8.86059 24.6321L8.8533 24.6234L8.83264 24.6021L8.75729 24.5234C8.32894 24.0694 7.90759 23.6086 7.4934 23.1409C6.454 21.9687 5.45837 20.7561 4.50868 19.506C3.42465 18.0685 2.31632 16.4435 1.47413 14.8385C0.650173 13.2648 0 11.5598 0 9.99986C0 4.32619 4.36528 0 9.72222 0C15.0792 0 19.4444 4.32619 19.4444 9.99986C19.4444 11.5598 18.7943 13.2648 17.9703 14.8373C17.1281 16.4448 16.021 18.0685 14.9358 19.506C13.6072 21.2548 12.189 22.9297 10.6872 24.5234L10.6118 24.6021L10.5911 24.6234L10.5839 24.6309L9.72222 23.7497ZM9.72222 13.7498C10.6892 13.7498 11.6165 13.3547 12.3002 12.6515C12.9839 11.9482 13.3681 10.9944 13.3681 9.99986C13.3681 9.00531 12.9839 8.05149 12.3002 7.34824C11.6165 6.64499 10.6892 6.24991 9.72222 6.24991C8.75529 6.24991 7.82795 6.64499 7.14423 7.34824C6.4605 8.05149 6.07639 9.00531 6.07639 9.99986C6.07639 10.9944 6.4605 11.9482 7.14423 12.6515C7.82795 13.3547 8.75529 13.7498 9.72222 13.7498Z" fill="currentColor"/>
</svg>
