<svg width="24" height="24" viewBox="0 0 24 24" fill="none" xmlns="http://www.w3.org/2000/svg">
<path d="M6.66667 18.6667C7.04444 18.6667 7.36133 18.5387 7.61733 18.2827C7.87333 18.0267 8.00089 17.7102 8 17.3333C7.99911 16.9564 7.87111 16.64 7.616 16.384C7.36089 16.128 7.04444 16 6.66667 16C6.28889 16 5.97244 16.128 5.71733 16.384C5.46222 16.64 5.33422 16.9564 5.33333 17.3333C5.33244 17.7102 5.46044 18.0271 5.71733 18.284C5.97422 18.5409 6.29067 18.6684 6.66667 18.6667ZM6.66667 13.3333C7.04444 13.3333 7.36133 13.2053 7.61733 12.9493C7.87333 12.6933 8.00089 12.3769 8 12C7.99911 11.6231 7.87111 11.3067 7.616 11.0507C7.36089 10.7947 7.04444 10.6667 6.66667 10.6667C6.28889 10.6667 5.97244 10.7947 5.71733 11.0507C5.46222 11.3067 5.33422 11.6231 5.33333 12C5.33244 12.3769 5.46044 12.6938 5.71733 12.9507C5.97422 13.2076 6.29067 13.3351 6.66667 13.3333ZM6.66667 8C7.04444 8 7.36133 7.872 7.61733 7.616C7.87333 7.36 8.00089 7.04355 8 6.66667C7.99911 6.28978 7.87111 5.97333 7.616 5.71733C7.36089 5.46133 7.04444 5.33333 6.66667 5.33333C6.28889 5.33333 5.97244 5.46133 5.71733 5.71733C5.46222 5.97333 5.33422 6.28978 5.33333 6.66667C5.33244 7.04355 5.46044 7.36044 5.71733 7.61733C5.97422 7.87422 6.29067 8.00178 6.66667 8ZM12 18.6667H17.3333C17.7111 18.6667 18.028 18.5387 18.284 18.2827C18.54 18.0267 18.6676 17.7102 18.6667 17.3333C18.6658 16.9564 18.5378 16.64 18.2827 16.384C18.0276 16.128 17.7111 16 17.3333 16H12C11.6222 16 11.3058 16.128 11.0507 16.384C10.7956 16.64 10.6676 16.9564 10.6667 17.3333C10.6658 17.7102 10.7938 18.0271 11.0507 18.284C11.3076 18.5409 11.624 18.6684 12 18.6667ZM12 13.3333H17.3333C17.7111 13.3333 18.028 13.2053 18.284 12.9493C18.54 12.6933 18.6676 12.3769 18.6667 12C18.6658 11.6231 18.5378 11.3067 18.2827 11.0507C18.0276 10.7947 17.7111 10.6667 17.3333 10.6667H12C11.6222 10.6667 11.3058 10.7947 11.0507 11.0507C10.7956 11.3067 10.6676 11.6231 10.6667 12C10.6658 12.3769 10.7938 12.6938 11.0507 12.9507C11.3076 13.2076 11.624 13.3351 12 13.3333ZM12 8H17.3333C17.7111 8 18.028 7.872 18.284 7.616C18.54 7.36 18.6676 7.04355 18.6667 6.66667C18.6658 6.28978 18.5378 5.97333 18.2827 5.71733C18.0276 5.46133 17.7111 5.33333 17.3333 5.33333H12C11.6222 5.33333 11.3058 5.46133 11.0507 5.71733C10.7956 5.97333 10.6676 6.28978 10.6667 6.66667C10.6658 7.04355 10.7938 7.36044 11.0507 7.61733C11.3076 7.87422 11.624 8.00178 12 8ZM2.66667 24C1.93333 24 1.30578 23.7391 0.784 23.2173C0.262222 22.6956 0.000888889 22.0676 0 21.3333V2.66667C0 1.93333 0.261333 1.30578 0.784 0.784C1.30667 0.262222 1.93422 0.000888889 2.66667 0H21.3333C22.0667 0 22.6947 0.261333 23.2173 0.784C23.74 1.30667 24.0009 1.93422 24 2.66667V21.3333C24 22.0667 23.7391 22.6947 23.2173 23.2173C22.6956 23.74 22.0676 24.0009 21.3333 24H2.66667Z" fill="currentColor"/>
</svg>
