<svg width="24" height="24" viewBox="0 0 24 24" fill="none" xmlns="http://www.w3.org/2000/svg">
<path fill-rule="evenodd" clip-rule="evenodd" d="M4.61523 12.0003C4.61523 7.92182 7.92133 4.61572 11.9999 4.61572C16.0784 4.61572 19.3845 7.92182 19.3845 12.0003C19.3845 16.0789 16.0784 19.385 11.9999 19.385C7.92133 19.385 4.61523 16.0789 4.61523 12.0003ZM12.7383 9.04649C12.7383 8.85064 12.6605 8.66281 12.522 8.52432C12.3835 8.38583 12.1957 8.30803 11.9999 8.30803C11.804 8.30803 11.6162 8.38583 11.4777 8.52432C11.3392 8.66281 11.2614 8.85064 11.2614 9.04649V12.0003C11.2614 12.1962 11.3393 12.384 11.4778 12.5224L13.6931 14.7378C13.8324 14.8723 14.019 14.9468 14.2126 14.9451C14.4062 14.9434 14.5914 14.8657 14.7283 14.7288C14.8652 14.5919 14.9429 14.4067 14.9446 14.2131C14.9463 14.0194 14.8718 13.8329 14.7373 13.6936L12.7383 11.6946V9.04649Z" fill="#CFD4D7"/>
</svg>
