<svg width="20" height="20" viewBox="0 0 20 20" fill="none" xmlns="http://www.w3.org/2000/svg">
<path fill-rule="evenodd" clip-rule="evenodd" d="M4 13.7727C4 14.4502 4.57429 15 5.284 15H14.716C15.4257 15 16 14.4502 16 13.7727V12.1085C16.0001 12.0187 15.9692 11.9312 15.912 11.8598C15.8548 11.7884 15.7746 11.7369 15.6837 11.7134C15.4048 11.6409 15.1586 11.4828 14.983 11.2635C14.8075 11.0442 14.7124 10.776 14.7124 10.5C14.7124 10.224 14.8075 9.95575 14.983 9.73648C15.1586 9.51721 15.4048 9.35914 15.6837 9.28664C15.7746 9.26309 15.8548 9.21162 15.912 9.14019C15.9692 9.06876 16.0001 8.98134 16 8.89145V7.22727C16 6.54982 15.4257 6 14.716 6H5.284C4.57429 6 4 6.54982 4 7.22727V8.88818C4.00011 8.9785 4.03154 9.06625 4.08937 9.13773C4.14721 9.20922 4.2282 9.26042 4.31971 9.28336C4.60161 9.35373 4.85111 9.51131 5.02918 9.73145C5.20725 9.95159 5.30385 10.2219 5.30385 10.5C5.30385 10.7781 5.20725 11.0484 5.02918 11.2685C4.85111 11.4887 4.60161 11.6463 4.31971 11.7166C4.2282 11.7396 4.14721 11.7908 4.08937 11.8623C4.03154 11.9338 4.00011 12.0215 4 12.1118V13.7727ZM8.25314 12.9071L12.5389 8.81618C12.6345 8.71945 12.6869 8.59095 12.6849 8.45795C12.683 8.32495 12.6268 8.19791 12.5283 8.1038C12.4298 8.00969 12.2968 7.95592 12.1575 7.95388C12.0181 7.95185 11.8834 8.00172 11.782 8.09291L7.49629 12.1838C7.4441 12.2307 7.40231 12.2872 7.37339 12.3498C7.34447 12.4124 7.329 12.4799 7.3279 12.5483C7.3268 12.6167 7.3401 12.6846 7.36701 12.748C7.39391 12.8115 7.43388 12.8691 7.48453 12.9175C7.53519 12.9659 7.59551 13.0041 7.66191 13.0299C7.72832 13.0556 7.79947 13.0684 7.87114 13.0674C7.94281 13.0664 8.01355 13.0518 8.07917 13.0242C8.14478 12.9967 8.20394 12.9568 8.25314 12.9071ZM7.44657 8.86364C7.44657 8.64664 7.53688 8.43853 7.69762 8.28509C7.85837 8.13166 8.07639 8.04545 8.30371 8.04545C8.53104 8.04545 8.74906 8.13166 8.90981 8.28509C9.07055 8.43853 9.16086 8.64664 9.16086 8.86364C9.16086 9.08063 9.07055 9.28874 8.90981 9.44218C8.74906 9.59562 8.53104 9.68182 8.30371 9.68182C8.07639 9.68182 7.85837 9.59562 7.69762 9.44218C7.53688 9.28874 7.44657 9.08063 7.44657 8.86364ZM10.8751 12.1364C10.8751 11.9194 10.9654 11.7113 11.1262 11.5578C11.2869 11.4044 11.505 11.3182 11.7323 11.3182C11.9596 11.3182 12.1776 11.4044 12.3384 11.5578C12.4991 11.7113 12.5894 11.9194 12.5894 12.1364C12.5894 12.3534 12.4991 12.5615 12.3384 12.7149C12.1776 12.8683 11.9596 12.9545 11.7323 12.9545C11.505 12.9545 11.2869 12.8683 11.1262 12.7149C10.9654 12.5615 10.8751 12.3534 10.8751 12.1364Z" fill="#CFD4D7"/>
</svg>
